<?xml version="1.0" encoding="UTF-8"?>
<svg width="309px" height="25px" viewBox="0 0 309 25" version="1.1" xmlns="http://www.w3.org/2000/svg" xmlns:xlink="http://www.w3.org/1999/xlink">
    <!-- Generator: Sketch 49.1 (51147) - http://www.bohemiancoding.com/sketch -->
    <title>Group 5</title>
    <desc>Created with Sketch.</desc>
    <defs>
        <path d="M10.3235425,0.0316388124 C9.46210161,0.0355987148 8.63940436,0.106755737 7.91548243,0.231048185 C5.78304347,0.596490611 5.39589917,1.36123667 5.39589917,2.77172968 L5.39589917,4.63462133 L10.4351907,4.63462133 L10.4351907,5.25551787 L5.39585751,5.25551787 L3.50467032,5.25551787 C2.04012089,5.25551787 0.757749666,6.10932133 0.356732662,7.73348744 C-0.10598247,9.5952477 -0.126645719,10.7571558 0.356732662,12.7011042 C0.714965076,14.1480041 1.57028194,15.1790334 3.03487303,15.1790334 L4.76746145,15.1790334 L4.76746145,12.9457696 C4.76746145,11.3326751 6.20655675,9.90945383 7.91544077,9.90945383 L12.9488582,9.90945383 C14.3499598,9.90945383 15.4683998,8.79061976 15.4683998,7.42578686 L15.4683998,2.77168927 C15.4683998,1.44730394 14.316382,0.452075393 12.9488582,0.231007778 C12.0832097,0.0911989777 11.1849417,0.0276385028 10.3235425,0.0316388124 Z M7.59836821,1.52981537 C8.11886545,1.52981537 8.54400347,1.9488377 8.54400347,2.46402909 C8.54400347,2.97740216 8.11886545,3.39266662 7.59836821,3.39266662 C7.0758713,3.39266662 6.65273296,2.97740216 6.65273296,2.46402909 C6.65273296,1.9488377 7.0758713,1.52981537 7.59836821,1.52981537 Z M16.0967959,5.25543706 L16.0967959,5.25551787 L17.9878998,5.25551787 C19.4543655,5.25551787 20.1456679,6.31951942 20.5075663,7.73348744 C21.011358,9.69743742 21.0336876,11.1698746 20.5075663,12.7011042 C19.9984006,14.1882901 19.4525325,15.1790334 17.9878998,15.1790334 L15.4683582,15.1790334 L10.435149,15.1790334 L10.435149,15.7998491 L15.4683998,15.7998491 L15.4683998,17.6628216 C15.4683998,19.0731126 14.2174401,19.7902994 12.9488582,20.1463674 C11.0400906,20.6837827 9.51063525,20.6013117 7.91544077,20.1463674 C6.58328611,19.76654 5.39585751,18.9872473 5.39585751,17.6628216 L5.39585751,13.0084816 C5.39585751,11.6693072 6.53675214,10.5246934 7.91544077,10.5246934 L12.9488999,10.5246934 C14.6260808,10.5246934 16.0967959,9.10866458 16.0967959,7.42578686 L16.0967959,5.25543706 Z" id="path-1"></path>
    </defs>
    <g id="home" stroke="none" stroke-width="1" fill="none" fill-rule="evenodd">
        <g id="homepage" transform="translate(-109.000000, -328.000000)">
            <g id="Group-5" transform="translate(109.000000, 328.000000)">
                <g id="Group-12" transform="translate(0.000000, 1.000000)" fill="#FFFFFF" fill-rule="nonzero">
                    <path d="M9.79361064,20.5268412 C9.49802475,20.5268412 9.20446343,20.4547304 8.94531964,20.3159687 L6.24516284,18.8293173 C5.84187032,18.6195744 6.03865764,18.5453925 6.17167128,18.5026532 C6.70939464,18.3275536 6.81851847,18.288015 7.39248147,17.9848858 C7.45281339,17.9528783 7.53177126,17.9641751 7.59352036,17.9980653 L9.66788541,19.1428019 C9.74279416,19.1804577 9.8490836,19.1804577 9.91852604,19.1428019 L18.0066466,14.801087 C18.0815554,14.7615484 18.1301448,14.6805884 18.1301448,14.5977456 L18.1301448,5.91808131 C18.1301448,5.83147294 18.0815554,5.75427853 18.005027,5.71097435 L9.92014569,1.37302499 C9.84523694,1.3316036 9.74603346,1.3316036 9.67112471,1.37302499 L1.58786307,5.71097435 C1.50951257,5.75239574 1.45970837,5.83335573 1.45970837,5.91619852 L1.45970837,14.5958628 C1.45970837,14.6787056 1.50829783,14.7577828 1.58523114,14.7973214 L3.80010071,15.987245 C5.00268985,16.5464338 5.73760544,15.8874571 5.73760544,15.2247149 L5.73760544,6.65801798 C5.73760544,6.5356366 5.84085804,6.44149707 5.9724545,6.44149707 L6.99688228,6.44149707 C7.12442962,6.44149707 7.22970678,6.5356366 7.22970678,6.65801798 L7.22970678,15.2284804 C7.22970678,16.7196505 6.3550965,17.5763202 4.8346513,17.5763202 C4.36697774,17.5763202 3.99850767,17.5763202 2.97003076,17.1056226 L0.848290994,15.9684171 C0.323929735,15.6859985 0,15.1588172 0,14.5958628 L0,5.91619852 C0,5.35136136 0.323929735,4.82418001 0.848290994,4.54552702 L8.94450982,0.201929283 C9.45672371,-0.0673097611 10.1369762,-0.0673097611 10.6451409,0.201929283 L18.7312369,4.54740981 C19.2535736,4.8279456 19.5795279,5.35324415 19.5795279,5.91808131 L19.5795279,14.5977456 C19.5795279,15.1607 19.2535736,15.6859985 18.7312369,15.9684171 L10.6451409,20.3120148 C10.3859971,20.4513413 10.0924358,20.5228874 9.79280081,20.5228874" id="Shape"></path>
                    <path d="M12.1746,14.9197007 C8.75054275,14.9197007 8.03262685,13.3983575 8.03262685,12.1223555 C8.03262685,12.0010121 8.13370314,11.9043166 8.25926496,11.9043166 L9.27002787,11.9043166 C9.38168191,11.9043166 9.47570637,11.9830002 9.49333596,12.0897445 C9.6461257,13.0866566 10.1005772,13.5894734 12.1710741,13.5894734 C13.8204198,13.5894734 14.5216855,13.2288559 14.5216855,12.3822959 C14.5216855,11.8950262 14.3218836,11.5328919 11.7597171,11.2902051 C9.61674306,11.0854381 8.29256529,10.6285042 8.29256529,8.9695121 C8.29256529,7.44134335 9.62457843,6.53126767 11.8557004,6.53126767 C14.3610604,6.53126767 15.6029668,7.37308767 15.7596742,9.18186309 C15.7655507,9.24443079 15.7420446,9.3051025 15.6989501,9.35060629 C15.6558555,9.39421408 15.5951314,9.42075795 15.5324484,9.42075795 L14.515809,9.42075795 C14.4100315,9.42075795 14.3179659,9.3487103 14.2964186,9.25011876 C14.0515633,8.20163574 13.4599927,7.86604533 11.8517827,7.86604533 C10.0516062,7.86604533 9.84200998,8.47276245 9.84200998,8.92780029 C9.84200998,9.47953368 10.0888242,9.64069291 12.5177893,9.95163544 C14.9232483,10.260682 16.0652537,10.6967599 16.0652537,12.3330001 C16.0652537,13.9825123 14.6431338,14.9286118 12.1632388,14.9286118 L12.1746,14.9197007 Z" id="Shape"></path>
                </g>
                <g id="dotnetmicrosoft-536938fee2" transform="translate(30.000000, 4.000000)" fill="#FFFFFF" fill-rule="nonzero">
                    <path d="M41,2.84217094e-14 L29.8302101,2.84217094e-14 L29.8302101,1.70221306 L34.4379363,1.70221306 L34.4379363,16.3852607 L36.3927008,16.3852607 L36.3927008,1.70221306 L41,1.70221306 L41,2.84217094e-14 Z M27.9451457,1.70221306 L27.9451457,0 L19.4085863,0 L19.4085863,16.3852607 L27.9451457,16.3852607 L27.9451457,14.6823451 L21.3630945,14.6823451 L21.3630945,8.96105446 L27.2273026,8.96105446 L27.2273026,7.2588414 L21.3630945,7.2588414 L21.3630945,1.70221306 L27.9451457,1.70221306 Z M2.75264323,15.5853093 C2.75264323,16.3667307 2.13661695,17 1.37666328,17 C0.616282534,17 0,16.3667307 0,15.5853093 C0,14.8031853 0.616282534,14.1706186 1.37666328,14.1706186 C2.13653153,14.1705307 2.75264323,14.8030975 2.75264323,15.5853093 Z M17.1885171,2.84217094e-14 L15.2334963,2.84217094e-14 L15.2334963,12.9356074 L6.24405676,2.84217094e-14 L4.28929227,2.84217094e-14 L4.28929227,16.3852607 L6.24405676,16.3852607 L6.24405676,3.46203598 L15.239988,16.3852607 L17.1885171,16.3852607 L17.1885171,2.84217094e-14 Z" id="Shape"></path>
                </g>
                <g id="icon/pip-copy" transform="translate(134.000000, 1.000000)">
                    <mask id="mask-2" fill="white">
                        <use xlink:href="#path-1"></use>
                    </mask>
                    <use id="Combined-Shape" fill="#FFFFFF" fill-rule="nonzero" xlink:href="#path-1"></use>
                </g>
                <g id="logo_ruby_vector-5835c851" transform="translate(166.000000, 1.000000)" fill="#FFFFFF">
                    <path d="M16.565856,0 L10.7624605,1.34986015 L11.6638141,1.57462124 L16.565856,0 Z M13.4107943,1.74359631 L19.9464181,2.92464309 L18.5940636,0.056109424 L13.4104703,1.74375801 L13.4107943,1.74359631 Z M6.25472031,4.33077436 L2.53525959,8.49289705 L0.957404741,11.4167316 L2.08458278,12.3735024 L6.02873391,9.89870492 L10.4237239,5.00570443 L11.4375037,2.24971301 L9.86045884,1.79970573 L6.25439632,4.33077436 L6.25472031,4.33077436 Z M11.1003871,5.00570443 L18.3125121,3.14940418 L12.170866,2.19344189 L11.1003871,5.00570443 Z M15.1009133,12.4292885 L20.7918826,20.0787655 L20.0026312,3.26210813 L15.1009133,12.4291268 L15.1009133,12.4292885 Z M11.3814526,5.56809226 L14.7066116,11.8109529 L19.1573287,3.48703092 L11.3814526,5.56809226 Z M6.64886003,10.1239511 L14.0861615,11.7554903 L10.7622985,5.56809226 L6.64886003,10.1239511 Z M2.31008318,12.9358903 L4.90155588,18.1102464 L5.9728448,10.5734733 L2.31008318,12.9358903 Z M5.40909379,19.2351837 L14.2557728,12.2611219 L6.59264692,10.6297444 L5.40925579,19.2348603 L5.40909379,19.2351837 Z M0,18.3350075 L0.0563751015,18.3350075 L0.0563751015,18.6726342 L1.85940636,13.0484325 L0.675529233,12.0923085 L0,18.3350075 Z M6.02905791,19.6285965 L20.2286176,20.1913077 L14.7066116,12.7677237 L6.02905791,19.6285965 Z M0.168477315,20.1351983 L4.95874097,19.5165393 L2.14111987,13.8360665 L0.168477315,20.1347132 L0.168477315,20.1351983 Z M5.29601959,20.1351983 L0.56342702,20.6974244 L18.8762631,20.6411533 L5.40941778,20.0787655 L5.29601959,20.1350366 L5.29601959,20.1351983 Z" id="Shape"></path>
                </g>
                <g id="golang" transform="translate(197.000000, 1.000000)" fill="#FFFFFF" fill-rule="nonzero">
                    <path d="M1.47515116,10.9154938 C1.42468403,8.64344457 0.869545536,6.41561643 1.43982417,4.17558936 C-1.03811218,3.47313477 0.804947603,0.297348725 2.79486675,1.60364996 C4.01112471,0.351227298 5.76132497,0.155027968 7.70531903,0 C9.54636013,0 11.3021118,0.196707618 12.5804443,1.27987024 C14.4366255,0.146387065 16.0445085,2.96332148 14.0808322,3.82792009 C14.6899706,6.09488644 14.4719525,8.48079228 14.5738962,10.8351842 C14.8968858,10.8590738 15.2188661,10.9632729 15.4772579,11.1523562 C15.6549022,11.282478 15.9879853,11.6972414 15.6402667,11.8598937 C15.6089771,12.5120277 14.9619884,12.2106127 14.669279,12.0062808 C14.7853535,14.232584 14.9306988,16.699816 13.9258981,18.7207708 C13.6725531,19.2305841 13.3384607,19.6580546 12.9458264,20.0148731 C13.4540304,20.3645755 14.2478785,21.237815 13.5362919,21.6718933 C12.8398454,22.3143699 12.4401457,21.026367 11.8416054,20.7722228 C10.4931236,21.4675614 8.8261941,21.6668104 7.35003039,21.6134402 C6.26347297,21.5748102 5.04872902,21.3552296 4.00405932,20.849991 C3.42873397,20.9541901 3.09968825,21.4853515 2.61217572,21.7557609 C2.15292479,22.0317615 1.97628982,21.6673187 1.93591611,21.5931086 C1.8637481,21.5600699 1.86929949,21.6236059 1.75827179,21.5117825 C1.33232917,20.834234 2.20238258,20.3396694 2.65507279,20.0031825 C2.68030635,19.9980996 2.70453058,19.9940333 2.72925948,19.9909835 C2.46783971,19.7470051 2.23670023,19.4689713 2.04492512,19.1553574 C0.812013002,17.1445684 1.34746931,14.1807386 1.46152503,11.9046231 C1.4110579,11.9900155 1.31264698,11.9574851 1.12339523,12.0891318 C0.830685842,12.2924471 0.183697166,12.5948787 0.152407542,11.9427447 C-0.195815692,11.7800924 0.137267401,11.3653291 0.315416389,11.2352072 C0.643452769,10.9952951 1.07242342,10.8926208 1.4761605,10.9160021 L1.47515116,10.9154938 Z M1.54429114,3.29777526 L2.03382235,2.36608259 C1.70578597,2.19173966 1.36260945,2.15361803 1.17689039,2.5063702 C0.977040534,2.88758651 1.2172641,3.12394062 1.54378646,3.29828355 L1.54429114,3.29777526 Z M13.3889278,2.96738779 L12.8993966,2.03467854 C13.227433,1.8608439 13.5706095,1.82221398 13.7558239,2.17496615 C13.9561784,2.55516588 13.7154502,2.79202829 13.3894325,2.96637121 L13.3889278,2.96738779 Z M2.92456729,5.2801001 C3.50191132,7.55062447 7.11132084,6.96914252 6.97505958,4.69150211 C6.8125554,1.96402645 2.37245683,2.49061325 2.92507196,5.2801001 L2.92456729,5.2801001 Z M7.9823836,4.85822071 C8.4280084,7.4657403 12.6606871,6.77650121 12.0525581,4.14661692 C11.507513,1.78815866 7.83451489,2.4402927 7.9823836,4.85822071 Z M9.0270533,5.40869707 C9.35761304,5.40869707 9.6260982,5.11185663 9.6260982,4.74436411 C9.6260982,4.37737987 9.35761304,4.07952285 9.02654863,4.07952285 C8.69548422,4.07952285 8.42699906,4.37737987 8.42699906,4.74436411 C8.42699906,5.11185663 8.69548422,5.40920536 9.02654863,5.40920536 L9.0270533,5.40869707 Z M3.9197792,5.57490738 C4.25639499,5.57490738 4.5294222,5.27755866 4.5294222,4.91006613 C4.5294222,4.5425736 4.25689966,4.2442083 3.9197792,4.2442083 C3.58316341,4.2442083 3.31064088,4.5425736 3.31064088,4.91006613 C3.31064088,5.27705037 3.58316341,5.57439909 3.9197792,5.57439909 L3.9197792,5.57490738 Z M8.57385843,7.1760159 C9.09366992,7.42863525 9.66092052,7.91049267 9.20823032,8.40404072 C8.76916624,8.88183184 8.32253209,8.31254881 7.77647769,8.30085817 C6.84182634,8.29272556 6.54003287,8.9143623 6.19887503,8.29272556 C5.9687449,7.87338761 6.26751034,7.35493343 6.68689223,7.21871213 C6.68335953,7.20346348 6.67982683,7.18618167 6.67780815,7.16940815 L6.73836871,7.16127554 L6.67780815,7.16432527 C6.65913531,6.72923038 7.0310781,6.43238995 7.54331952,6.37952795 C8.03991613,6.32717424 8.49210167,6.52388186 8.59202659,6.89594898 C8.61927885,6.99760667 8.61120411,7.09214831 8.57385843,7.17652419 L8.57385843,7.1760159 Z M8.45778401,8.65666007 C8.45929803,8.93266068 8.52540998,9.24220833 8.46888678,9.53599903 C8.39318608,9.66815402 8.24329869,9.68340268 8.11460749,9.73677296 C7.93595383,9.71135854 7.78657111,9.60258482 7.71490778,9.44857343 C7.66948736,9.11310307 7.73156194,8.78932335 7.74316938,8.45436128 L8.45778401,8.65666007 Z M6.74694812,8.62616276 L7.6124595,8.43809605 C7.59984271,8.77254983 7.53171208,9.09683784 7.58217922,9.43179991 C6.88977012,10.2104978 6.49208909,9.15478272 6.7474528,8.62667105 L6.74694812,8.62616276 Z M6.80599467,7.18516509 C6.87967669,7.75343155 8.62634425,7.60450304 8.44970927,6.96405963 C8.2730743,6.32209136 6.77218169,6.41764958 6.80599467,7.18516509 Z" id="Shape"></path>
                </g>
                <g id="scala-00b4073da4" transform="translate(109.000000, 1.000000)" fill="#FFFFFF">
                    <path d="M13.8269373,0 L13.8269373,5.05879151 C13.8269373,5.05879151 13.8269373,5.98898258 10.6454587,6.6239571 C7.46392071,7.259392 0.469059278,8.21185379 0.00171840712,8.5065524 L0.00171840712,3.28916113 C0.00171840712,3.28916113 -0.139225665,3.08509917 2.17706405,2.79040055 C4.49281967,2.49524156 13.0081561,1.72411064 13.8269373,0 Z M13.8269373,6.68092871 L13.8269373,11.7393174 C13.8269373,11.7393174 13.8269373,12.6693934 10.6454587,13.3043679 C7.46392071,13.9398028 0.469059278,14.8922646 0.00171840712,15.1874811 L0.00171840712,9.97008984 C0.00171840712,9.97008984 -0.139225665,9.76550996 2.17706405,9.47081134 C4.49281967,9.17611273 13.0081561,8.40452142 13.8269373,6.68092871 Z M13.8269373,13.3613395 L13.8269373,18.4197282 C13.8269373,18.4197282 13.8269373,19.3498042 10.6454587,19.9852966 C7.46386136,20.6202711 0.469059278,21.5731933 0.00165906224,21.8678919 L0.00165906224,16.6505006 C0.00165906224,16.6505006 -0.13928501,16.4464962 2.17700471,16.1513372 C4.49281967,15.8566386 13.0081561,15.0854501 13.8269373,13.3613395 Z" id="Shape"></path>
                </g>
                <g id="icons8-java" transform="translate(79.000000, 0.000000)" fill="#FFFFFF" fill-rule="nonzero">
                    <path d="M10.6604167,0 C11.8955732,2.41612049 6.22890653,3.91489058 5.70208333,5.92617142 C5.21953153,7.77810054 9.06223987,9.92289168 9.06666667,9.92289168 C8.48229167,9.15627994 8.05729167,8.53179157 7.47291667,7.33880531 C6.4856768,5.32321793 13.3255214,3.23872159 10.6604167,0 Z M14.7333333,3.30763056 C14.7333333,3.30763056 10.4213547,3.57895991 10.2,6.13289833 C10.1026047,7.26989634 11.3333333,7.89007707 11.36875,8.71698471 C11.3997399,9.3931537 10.625,9.92289168 10.625,9.92289168 C10.625,9.92289168 11.8911464,9.74631272 12.325,8.71698471 C12.803125,7.57568017 11.5059899,6.74015835 11.6520833,5.82280797 C11.7893232,4.9442186 14.7333333,3.30763056 14.7333333,3.30763056 Z M6.69375,9.92289168 C6.69375,9.92289168 2.26666667,9.89705137 2.26666667,11.0943442 C2.26666667,12.3476263 8.04401013,12.4165353 12.1833333,11.6456159 C12.1833333,11.6456159 13.1307297,11.1546401 13.4229167,10.8876173 C10.7091149,11.4173552 4.71041667,11.2407763 4.71041667,10.7842538 C4.71041667,10.3621869 6.69375,9.92289168 6.69375,9.92289168 Z M15.5125,9.95734617 C15.0255214,9.93581239 14.4854167,10.086551 14.025,10.4052545 C14.98125,10.2028341 15.7958333,10.7756407 15.7958333,11.438889 C15.7958333,12.9247384 13.6,14.3330658 13.6,14.3330658 C13.6,14.3330658 17,13.9540664 17,11.507798 C17,10.4956972 16.3226565,9.99180065 15.5125,9.95734617 Z M5.13541667,12.1279787 C4.44479167,12.1279787 3.4,12.683557 3.4,13.1960678 C3.4,14.2297023 8.6106768,15.0135424 12.4666667,13.5061581 L11.1208333,12.6792505 C8.5044268,13.5147723 3.7098964,13.243443 5.13541667,12.1279787 Z M6.09166667,14.3330658 C5.13984347,14.3330658 4.53333333,14.9790879 4.53333333,15.4356093 C4.53333333,16.8439366 10.2132815,16.8697769 12.4666667,15.4356093 L11.05,14.5742472 C9.36770833,15.3236328 5.11770833,15.418382 6.09166667,14.3330658 Z M1.98333333,16.5036983 C0.6286464,16.4606308 0,17.123879 0,17.6751508 C0,20.603782 14.7333333,20.496112 14.7333333,17.5028784 C14.7333333,17.0075949 14.1622399,16.7534939 13.9541667,16.6415163 C15.1583333,19.505545 1.77083333,19.2945116 1.77083333,17.6062418 C1.77083333,17.222936 2.46145833,16.8439366 3.36458333,17.0205156 C3.36458333,17.0205156 3.05911487,16.6458228 2.62083333,16.5726073 C2.3950518,16.5338463 2.178125,16.5080049 1.98333333,16.5036983 Z M17,18.7087854 C14.6625,20.9354062 8.2255214,22.2877453 2.26666667,20.9138724 C8.25208333,23.2740046 16.9734381,21.4436104 17,18.7087854 Z" id="Shape"></path>
                </g>
                <g id="gradle-1" transform="translate(224.000000, 1.000000)" fill="#FFFFFF" fill-rule="nonzero">
                    <path d="M33.3881276,8.68477289 C32.1178091,11.6305448 30.1545896,13.5690528 25.9586892,14.1201972 C23.4950413,14.4622868 23.9954697,16.248755 23.9954697,21 L20.6464483,21 C20.6464483,21 14.9877569,12.0866643 12.3508837,21 L9.36756003,21 C8.77089529,16.6098496 5.19090686,16.4388048 4.19004988,21 L0.263610952,21 C0.263610952,21 -1.87283376,8.60875297 6.01853859,5.79601591 C6.01853859,5.79601591 6.73068683,7.46845416 7.65455481,8.93183763 C8.67465904,10.5472609 11.3500267,11.6685548 14.4680812,7.03133962 C14.4680812,7.03133962 10.2721808,11.6115398 8.36670304,8.47571811 C7.15412632,6.49920018 7.55831856,7.2403944 6.32649458,4.84576691 C5.42187385,3.09730874 6.48047258,2.33710953 8.79014254,1.57691033 C11.0998125,0.816711125 18.0673169,-1.12179685 23.2640743,3.64845316 C28.1528757,8.13362847 29.3462051,7.90556871 30.4048039,6.9553197 C31.3479191,6.10009559 30.8089961,4.69372707 30.5780291,4.0855677 C30.0198589,2.6601942 28.8072821,2.20407467 28.3261009,1.78596511 C28.1721229,1.63392527 27.9796504,1.50089041 28.3068537,1.08278085 C28.5185734,0.797706144 29.8851281,0.949745985 29.9813644,0.835716105 C30.7320071,-0.0385129804 33.0994188,2.16606471 33.6768363,3.83850296 C34.1387703,5.20686153 34.1580175,6.93631472 33.3881276,8.68477289 Z M19.7610748,6.70825496 C19.7610748,6.70825496 19.0104321,8.77979779 21.089135,9.44497209 C22.6481623,9.97711154 23.860739,8.74178783 23.9954697,8.09561851 C21.5703163,7.29740934 19.7610748,6.70825496 19.7610748,6.70825496 Z" id="Combined-Shape"></path>
                    <g id="Group" transform="translate(20.838710, 7.000000)">
                        <ellipse id="Oval" transform="translate(1.350167, 1.317212) rotate(-6.066000) translate(-1.350167, -1.317212) " cx="1.35016656" cy="1.31721175" rx="1.20223325" ry="1.15067625"></ellipse>
                    </g>
                    <path d="M28.7067394,1.78373811 C28.8351299,1.90710746 29.0002033,2.03047681 29.1652767,2.15384615 C29.9356194,1.43419163 30.9444015,1.45475319 31.8064516,1.06408359 C31.0544504,0.282744392 29.8439119,-0.313540785 29.4770821,0.179936603 C29.3853746,0.30330595 28.9084958,0.714537106 28.7067394,1.02296047 C28.3765926,1.47531475 28.541666,1.61924565 28.7067394,1.78373811 Z" id="Shape"></path>
                </g>
                <g id="PHP-Logo-595b40b85ba036ed117dddad" transform="translate(268.000000, 3.000000)" fill="#FFFFFF" fill-rule="nonzero">
                    <path d="M20.5,0 C14.9545288,0 9.925895,1.15148169 6.21272786,3.07061277 C2.49956099,4.98974385 0,7.75785154 0,11 C0,14.2421485 2.49956099,17.0102562 6.21272786,18.9293872 C9.925895,20.8485183 14.9545288,22 20.5,22 C26.0454712,22 31.0741059,20.8485183 34.7872717,18.9293872 C38.5004393,17.0102562 41,14.2421485 41,11 C41,7.75785154 38.5004401,4.98974385 34.7872717,3.07061277 C31.0741059,1.15148169 26.0454712,0 20.5,0 Z M20.5,1.69230769 C25.8046227,1.69230769 30.5992746,2.813723 33.9965004,4.56956162 C37.3937271,6.32540023 39.2916667,8.63433408 39.2916667,11 C39.2916667,13.3656659 37.3937271,15.6745998 33.9965004,17.4304384 C30.5992746,19.186277 25.8046227,20.3076923 20.5,20.3076923 C15.1953773,20.3076923 10.4007254,19.186277 7.00349939,17.4304384 C3.60627305,15.6745998 1.70833333,13.3656659 1.70833333,11 C1.70833333,8.63433408 3.60627305,6.32540023 7.00349939,4.56956162 C10.4007254,2.813723 15.1953773,1.69230769 20.5,1.69230769 Z M18.3712561,3.38461538 L16.2291667,13.5384615 L18.4713542,13.5384615 L19.5524089,8.46153846 L21.3441567,8.46153846 C21.9155942,8.46153846 22.2942975,8.55548777 22.4702559,8.74248777 C22.64536,8.93118008 22.6836771,9.28737108 22.5820312,9.80183262 L21.7628991,13.5384615 L24.0401202,13.5384615 L24.9276532,9.49609354 C25.1181324,8.52724738 24.9729642,7.81555246 24.4989017,7.384014 C24.0162975,6.94570631 23.1664683,6.76923077 21.8980308,6.76923077 L19.8994141,6.76923077 L20.6117754,3.38461538 L18.3712561,3.38461538 Z M8.54166667,6.76923077 L6.80997717,16.0769231 L9.06884808,16.0769231 L9.5192869,13.5384615 L10.9256595,13.5384615 C13.8691178,13.5384615 15.4702396,12.8633501 16.0690104,10.360427 C16.5840729,8.21035008 15.2674015,6.76923077 13.0961098,6.76923077 L8.54166667,6.76923077 Z M26.4791667,6.76923077 L24.747477,16.0769231 L27.0063481,16.0769231 L27.4567869,13.5384615 L28.8631595,13.5384615 C31.8066178,13.5384615 33.4077396,12.8633501 34.0065104,10.360427 C34.5215729,8.21035008 33.2049015,6.76923077 31.0336098,6.76923077 L26.4791667,6.76923077 Z M10.4835616,8.46153846 L12.2436113,8.46153846 C13.702528,8.46153846 14.0096146,9.11303715 13.9335938,9.838191 C13.7379896,11.7048064 12.5635241,11.8461538 11.2993574,11.8461538 L9.83793121,11.8461538 L10.4835616,8.46153846 Z M28.4210616,8.46153846 L30.1811113,8.46153846 C31.640028,8.46153846 31.9471146,9.11303715 31.8710937,9.838191 C31.6754896,11.7048064 30.5010241,11.8461538 29.2368574,11.8461538 L27.7754312,11.8461538 L28.4210616,8.46153846 Z" id="Shape"></path>
                </g>
            </g>
        </g>
    </g>
</svg>